<svg width="403" height="133" viewBox="0 0 403 133" fill="none" xmlns="http://www.w3.org/2000/svg">
<path d="M33.6056 52.9301C33.6962 53.266 33.4974 53.6127 33.1593 53.6949C28.0222 54.9441 22.6162 54.5473 17.7091 52.5516C12.6072 50.4767 8.32536 46.7877 5.51851 42.0489C2.71167 37.3101 1.53433 31.7823 2.16657 26.311C2.79881 20.8397 5.20582 15.7261 9.01946 11.7524C12.8331 7.77857 17.8434 5.16337 23.2841 4.30673C28.7248 3.45008 34.2963 4.39917 39.1465 7.00882C43.9967 9.61847 47.8586 13.745 50.1415 18.7573C52.3372 23.5783 52.956 28.9633 51.919 34.1474C51.8508 34.4887 51.5125 34.7016 51.1731 34.6248V34.6248C50.8337 34.548 50.6216 34.2107 50.6894 33.8694C51.6659 28.954 51.0762 23.85 48.9946 19.2797C46.8259 14.518 43.1571 10.5978 38.5494 8.11859C33.9417 5.63942 28.6487 4.73779 23.4801 5.5516C18.3115 6.36541 13.5517 8.84986 9.9287 12.625C6.30574 16.4 4.01908 21.258 3.41846 26.4557C2.81783 31.6534 3.9363 36.9048 6.6028 41.4067C9.2693 45.9086 13.337 49.4131 18.1839 51.3842C22.8359 53.2762 27.9598 53.6555 32.8309 52.4778C33.1692 52.3961 33.5149 52.5941 33.6056 52.9301V52.9301Z" fill="#747474" stroke="#747474" stroke-width="4"/>
<path d="M96.3815 52.9207C96.2903 53.2565 96.4886 53.6035 96.8267 53.6862C101.962 54.9428 107.368 54.5538 112.278 52.5652C117.383 50.4977 121.671 46.8149 124.484 42.0802C127.298 37.3454 128.483 31.8194 127.859 26.3472C127.235 20.875 124.835 15.7579 121.027 11.7786C117.219 7.79931 112.213 5.17686 106.773 4.31233C101.334 3.44781 95.761 4.38882 90.907 6.99143C86.0531 9.59404 82.1852 13.715 79.895 18.724C77.6923 23.5417 77.0657 28.9259 78.0951 34.1115C78.1629 34.4528 78.5008 34.6662 78.8404 34.5899V34.5899C79.1799 34.5136 79.3924 34.1766 79.3251 33.8352C78.3558 28.9184 78.9529 23.8152 81.0411 19.248C83.2168 14.4894 86.8913 10.5745 91.5025 8.10206C96.1138 5.62958 101.408 4.73563 106.576 5.55693C111.743 6.37822 116.499 8.86956 120.117 12.6499C123.734 16.4302 126.014 21.2914 126.607 26.49C127.2 31.6886 126.074 36.9384 123.401 41.4364C120.728 45.9344 116.655 49.433 111.805 51.3972C107.151 53.2824 102.026 53.6543 97.1568 52.4696C96.8187 52.3873 96.4726 52.5848 96.3815 52.9207V52.9207Z" fill="#747474" stroke="#747474" stroke-width="4"/>
<path d="M34.8306 81.4565C34.9386 81.1256 34.7581 80.7691 34.4247 80.6694C29.3595 79.1548 23.9402 79.27 18.9359 81.0079C13.733 82.8147 9.2652 86.276 6.21576 90.8625C3.16631 95.4489 1.70314 100.908 2.05004 106.405C2.39694 111.902 4.5348 117.133 8.13665 121.3C11.7385 125.467 16.606 128.339 21.9948 129.477C27.3836 130.616 32.9969 129.958 37.9762 127.604C42.9556 125.25 47.0268 121.33 49.5672 116.443C52.0107 111.743 52.9086 106.397 52.1427 101.166C52.0923 100.822 51.7656 100.591 51.4226 100.651V100.651C51.0796 100.71 50.8503 101.035 50.9003 101.38C51.6198 106.339 50.7655 111.406 48.4491 115.862C46.0357 120.504 42.168 124.228 37.4376 126.464C32.7073 128.701 27.3746 129.326 22.2553 128.244C17.136 127.163 12.5118 124.434 9.09003 120.476C5.66827 116.518 3.6373 111.547 3.30775 106.325C2.9782 101.103 4.36821 95.9173 7.26518 91.5602C10.1622 87.2031 14.4066 83.9148 19.3494 82.1983C24.0935 80.5508 29.2302 80.4384 34.0334 81.8678C34.367 81.967 34.7226 81.7873 34.8306 81.4565V81.4565Z" fill="#747474" stroke="#747474" stroke-width="4"/>
<path d="M96.355 81.1079C96.2635 80.7721 96.4614 80.425 96.7993 80.3419C101.933 79.0795 107.34 79.4625 112.252 81.4456C117.36 83.5075 121.651 87.1854 124.47 91.917C127.289 96.6486 128.48 102.173 127.862 107.646C127.244 113.119 124.85 118.239 121.047 122.222C117.243 126.206 112.24 128.834 106.801 129.705C101.363 130.575 95.7887 129.64 90.9318 127.043C86.0749 124.446 82.2025 120.329 79.9067 115.323C77.6986 110.508 77.0661 105.124 78.0897 99.9376C78.157 99.5961 78.4947 99.3824 78.8343 99.4583V99.4583C79.174 99.5342 79.3869 99.871 79.32 100.212C78.3561 105.13 78.9589 110.233 81.0523 114.798C83.2332 119.554 86.9121 123.465 91.5261 125.932C96.1401 128.399 101.435 129.287 106.602 128.46C111.768 127.633 116.522 125.137 120.135 121.352C123.748 117.568 126.023 112.704 126.61 107.505C127.197 102.306 126.065 97.0571 123.387 92.5621C120.709 88.067 116.632 84.5729 111.781 82.6142C107.124 80.7342 101.999 80.368 97.1308 81.5581C96.7928 81.6408 96.4465 81.4436 96.355 81.1079V81.1079Z" fill="#747474" stroke="#747474" stroke-width="4"/>
<path d="M27.2043 29.4563C64.2545 56.2232 64.2545 56.2232 102.817 29.4563C66.775 69.2791 66.775 69.2791 102.817 105.069C64.2545 82.3349 64.2545 82.3349 27.2043 105.069C61.7341 69.2791 61.7341 69.2791 27.2043 29.4563Z" fill="#383838"/>
<path d="M52.6794 65.763C52.3881 64.2314 53.4801 62.7261 55.0391 62.7261V62.7261H58.1738H59.7412H61.3085H62.2576C62.6146 62.7261 62.9692 62.7846 63.3073 62.8992V62.8992C63.9632 63.1215 64.6727 63.1299 65.3336 62.9231L65.4375 62.8906C65.7859 62.7815 66.1488 62.7261 66.5138 62.7261H67.5779H70.7126H70.9805C73.8935 62.7261 75.751 65.8876 75.7835 68.8003V68.8003C75.8162 71.7389 73.8307 74.32 70.892 74.32H70.7126H68.8219C68.021 74.32 67.2485 74.0238 66.653 73.4882V73.4882C65.4566 72.4122 63.652 72.3761 62.4135 73.4035L62.2693 73.5231C61.6484 74.0381 60.867 74.32 60.0602 74.32H58.1738H57.8621C54.9157 74.32 52.9942 71.431 52.9656 68.4848C52.9571 67.6121 52.8624 66.7248 52.6794 65.763Z" fill="#9A9A9A"/>
<path d="M277 9C277 4.02944 281.029 0 286 0H394C398.971 0 403 4.02944 403 9V117C403 121.971 398.971 126 394 126H286C281.029 126 277 121.971 277 117V9Z" fill="#383838"/>
<path d="M277.061 68.0607C277.646 67.4749 277.646 66.5251 277.061 65.9393L267.515 56.3934C266.929 55.8076 265.979 55.8076 265.393 56.3934C264.808 56.9792 264.808 57.9289 265.393 58.5147L273.879 67L265.393 75.4853C264.808 76.0711 264.808 77.0208 265.393 77.6066C265.979 78.1924 266.929 78.1924 267.515 77.6066L277.061 68.0607ZM128 68.5H276V65.5H128V68.5Z" fill="black"/>
<path d="M331.295 62.752V65.875C331.189 66.0312 331.021 66.207 330.791 66.4023C330.561 66.5938 330.242 66.7617 329.836 66.9062C329.434 67.0469 328.914 67.1172 328.277 67.1172C327.758 67.1172 327.279 67.0273 326.842 66.8477C326.408 66.6641 326.031 66.3984 325.711 66.0508C325.395 65.6992 325.148 65.2734 324.973 64.7734C324.801 64.2695 324.715 63.6992 324.715 63.0625V62.4004C324.715 61.7637 324.789 61.1953 324.938 60.6953C325.09 60.1953 325.312 59.7715 325.605 59.4238C325.898 59.0723 326.258 58.8066 326.684 58.627C327.109 58.4434 327.598 58.3516 328.148 58.3516C328.801 58.3516 329.346 58.4648 329.783 58.6914C330.225 58.9141 330.568 59.2227 330.814 59.6172C331.064 60.0117 331.225 60.4609 331.295 60.9648H330.164C330.113 60.6562 330.012 60.375 329.859 60.1211C329.711 59.8672 329.498 59.6641 329.221 59.5117C328.943 59.3555 328.586 59.2773 328.148 59.2773C327.754 59.2773 327.412 59.3496 327.123 59.4941C326.834 59.6387 326.596 59.8457 326.408 60.1152C326.221 60.3848 326.08 60.7109 325.986 61.0938C325.896 61.4766 325.852 61.9082 325.852 62.3887V63.0625C325.852 63.5547 325.908 63.9941 326.021 64.3809C326.139 64.7676 326.305 65.0977 326.52 65.3711C326.734 65.6406 326.99 65.8457 327.287 65.9863C327.588 66.127 327.92 66.1973 328.283 66.1973C328.686 66.1973 329.012 66.1641 329.262 66.0977C329.512 66.0273 329.707 65.9453 329.848 65.8516C329.988 65.7539 330.096 65.6621 330.17 65.5762V63.666H328.195V62.752H331.295ZM336.744 65.916V62.6523C336.744 62.4023 336.693 62.1855 336.592 62.002C336.494 61.8145 336.346 61.6699 336.146 61.5684C335.947 61.4668 335.701 61.416 335.408 61.416C335.135 61.416 334.895 61.4629 334.688 61.5566C334.484 61.6504 334.324 61.7734 334.207 61.9258C334.094 62.0781 334.037 62.2422 334.037 62.418H332.953C332.953 62.1914 333.012 61.9668 333.129 61.7441C333.246 61.5215 333.414 61.3203 333.633 61.1406C333.855 60.957 334.121 60.8125 334.43 60.707C334.742 60.5977 335.09 60.543 335.473 60.543C335.934 60.543 336.34 60.6211 336.691 60.7773C337.047 60.9336 337.324 61.1699 337.523 61.4863C337.727 61.7988 337.828 62.1914 337.828 62.6641V65.6172C337.828 65.8281 337.846 66.0527 337.881 66.291C337.92 66.5293 337.977 66.7344 338.051 66.9062V67H336.92C336.865 66.875 336.822 66.709 336.791 66.502C336.76 66.291 336.744 66.0957 336.744 65.916ZM336.932 63.1562L336.943 63.918H335.848C335.539 63.918 335.264 63.9434 335.021 63.9941C334.779 64.041 334.576 64.1133 334.412 64.2109C334.248 64.3086 334.123 64.4316 334.037 64.5801C333.951 64.7246 333.908 64.8945 333.908 65.0898C333.908 65.2891 333.953 65.4707 334.043 65.6348C334.133 65.7988 334.268 65.9297 334.447 66.0273C334.631 66.1211 334.855 66.168 335.121 66.168C335.453 66.168 335.746 66.0977 336 65.957C336.254 65.8164 336.455 65.6445 336.604 65.4414C336.756 65.2383 336.838 65.041 336.85 64.8496L337.312 65.3711C337.285 65.5352 337.211 65.7168 337.09 65.916C336.969 66.1152 336.807 66.3066 336.604 66.4902C336.404 66.6699 336.166 66.8203 335.889 66.9414C335.615 67.0586 335.307 67.1172 334.963 67.1172C334.533 67.1172 334.156 67.0332 333.832 66.8652C333.512 66.6973 333.262 66.4727 333.082 66.1914C332.906 65.9062 332.818 65.5879 332.818 65.2363C332.818 64.8965 332.885 64.5977 333.018 64.3398C333.15 64.0781 333.342 63.8613 333.592 63.6895C333.842 63.5137 334.143 63.3809 334.494 63.291C334.846 63.2012 335.238 63.1562 335.672 63.1562H336.932ZM340.611 61.9199V67H339.521V60.6602H340.553L340.611 61.9199ZM340.389 63.5898L339.885 63.5723C339.889 63.1387 339.945 62.7383 340.055 62.3711C340.164 62 340.326 61.6777 340.541 61.4043C340.756 61.1309 341.023 60.9199 341.344 60.7715C341.664 60.6191 342.035 60.543 342.457 60.543C342.754 60.543 343.027 60.5859 343.277 60.6719C343.527 60.7539 343.744 60.8848 343.928 61.0645C344.111 61.2441 344.254 61.4746 344.355 61.7559C344.457 62.0371 344.508 62.377 344.508 62.7754V67H343.424V62.8281C343.424 62.4961 343.367 62.2305 343.254 62.0312C343.145 61.832 342.988 61.6875 342.785 61.5977C342.582 61.5039 342.344 61.457 342.07 61.457C341.75 61.457 341.482 61.5137 341.268 61.627C341.053 61.7402 340.881 61.8965 340.752 62.0957C340.623 62.2949 340.529 62.5234 340.471 62.7812C340.416 63.0352 340.389 63.3047 340.389 63.5898ZM344.496 62.9922L343.77 63.2148C343.773 62.8672 343.83 62.5332 343.939 62.2129C344.053 61.8926 344.215 61.6074 344.426 61.3574C344.641 61.1074 344.904 60.9102 345.217 60.7656C345.529 60.6172 345.887 60.543 346.289 60.543C346.629 60.543 346.93 60.5879 347.191 60.6777C347.457 60.7676 347.68 60.9062 347.859 61.0938C348.043 61.2773 348.182 61.5137 348.275 61.8027C348.369 62.0918 348.416 62.4355 348.416 62.834V67H347.326V62.8223C347.326 62.4668 347.27 62.1914 347.156 61.9961C347.047 61.7969 346.891 61.6582 346.688 61.5801C346.488 61.498 346.25 61.457 345.973 61.457C345.734 61.457 345.523 61.498 345.34 61.5801C345.156 61.6621 345.002 61.7754 344.877 61.9199C344.752 62.0605 344.656 62.2227 344.59 62.4062C344.527 62.5898 344.496 62.7852 344.496 62.9922ZM352.688 67.1172C352.246 67.1172 351.846 67.043 351.486 66.8945C351.131 66.7422 350.824 66.5293 350.566 66.2559C350.312 65.9824 350.117 65.6582 349.98 65.2832C349.844 64.9082 349.775 64.498 349.775 64.0527V63.8066C349.775 63.291 349.852 62.832 350.004 62.4297C350.156 62.0234 350.363 61.6797 350.625 61.3984C350.887 61.1172 351.184 60.9043 351.516 60.7598C351.848 60.6152 352.191 60.543 352.547 60.543C353 60.543 353.391 60.6211 353.719 60.7773C354.051 60.9336 354.322 61.1523 354.533 61.4336C354.744 61.7109 354.9 62.0391 355.002 62.418C355.104 62.793 355.154 63.2031 355.154 63.6484V64.1348H350.42V63.25H354.07V63.168C354.055 62.8867 353.996 62.6133 353.895 62.3477C353.797 62.082 353.641 61.8633 353.426 61.6914C353.211 61.5195 352.918 61.4336 352.547 61.4336C352.301 61.4336 352.074 61.4863 351.867 61.5918C351.66 61.6934 351.482 61.8457 351.334 62.0488C351.186 62.252 351.07 62.5 350.988 62.793C350.906 63.0859 350.865 63.4238 350.865 63.8066V64.0527C350.865 64.3535 350.906 64.6367 350.988 64.9023C351.074 65.1641 351.197 65.3945 351.357 65.5938C351.521 65.793 351.719 65.9492 351.949 66.0625C352.184 66.1758 352.449 66.2324 352.746 66.2324C353.129 66.2324 353.453 66.1543 353.719 65.998C353.984 65.8418 354.217 65.6328 354.416 65.3711L355.072 65.8926C354.936 66.0996 354.762 66.2969 354.551 66.4844C354.34 66.6719 354.08 66.8242 353.771 66.9414C353.467 67.0586 353.105 67.1172 352.688 67.1172Z" fill="white"/>
<rect x="166" y="42" width="73" height="21" rx="3" fill="#383838"/>
<path d="M170.166 52.0625L174.215 53.7031V54.8516L169.422 52.6309V51.957L170.166 52.0625ZM174.215 50.7148L170.172 52.3789L169.422 52.4609V51.7812L174.215 49.5664V50.7148ZM177.859 55.0215L179.594 49.6602H180.701L178.422 56H177.695L177.859 55.0215ZM176.412 49.6602L178.199 55.0508L178.322 56H177.596L175.299 49.6602H176.412ZM182.922 49.6602V56H181.832V49.6602H182.922ZM181.75 47.9785C181.75 47.8027 181.803 47.6543 181.908 47.5332C182.018 47.4121 182.178 47.3516 182.389 47.3516C182.596 47.3516 182.754 47.4121 182.863 47.5332C182.977 47.6543 183.033 47.8027 183.033 47.9785C183.033 48.1465 182.977 48.291 182.863 48.4121C182.754 48.5293 182.596 48.5879 182.389 48.5879C182.178 48.5879 182.018 48.5293 181.908 48.4121C181.803 48.291 181.75 48.1465 181.75 47.9785ZM188.658 54.7695V47H189.748V56H188.752L188.658 54.7695ZM184.393 52.9004V52.7773C184.393 52.293 184.451 51.8535 184.568 51.459C184.689 51.0605 184.859 50.7188 185.078 50.4336C185.301 50.1484 185.564 49.9297 185.869 49.7773C186.178 49.6211 186.521 49.543 186.9 49.543C187.299 49.543 187.646 49.6133 187.943 49.7539C188.244 49.8906 188.498 50.0918 188.705 50.3574C188.916 50.6191 189.082 50.9355 189.203 51.3066C189.324 51.6777 189.408 52.0977 189.455 52.5664V53.1055C189.412 53.5703 189.328 53.9883 189.203 54.3594C189.082 54.7305 188.916 55.0469 188.705 55.3086C188.498 55.5703 188.244 55.7715 187.943 55.9121C187.643 56.0488 187.291 56.1172 186.889 56.1172C186.518 56.1172 186.178 56.0371 185.869 55.877C185.564 55.7168 185.301 55.4922 185.078 55.2031C184.859 54.9141 184.689 54.5742 184.568 54.1836C184.451 53.7891 184.393 53.3613 184.393 52.9004ZM185.482 52.7773V52.9004C185.482 53.2168 185.514 53.5137 185.576 53.791C185.643 54.0684 185.744 54.3125 185.881 54.5234C186.018 54.7344 186.191 54.9004 186.402 55.0215C186.613 55.1387 186.865 55.1973 187.158 55.1973C187.518 55.1973 187.812 55.1211 188.043 54.9688C188.277 54.8164 188.465 54.6152 188.605 54.3652C188.746 54.1152 188.855 53.8438 188.934 53.5508V52.1387C188.887 51.9238 188.818 51.7168 188.729 51.5176C188.643 51.3145 188.529 51.1348 188.389 50.9785C188.252 50.8184 188.082 50.6914 187.879 50.5977C187.68 50.5039 187.443 50.457 187.17 50.457C186.873 50.457 186.617 50.5195 186.402 50.6445C186.191 50.7656 186.018 50.9336 185.881 51.1484C185.744 51.3594 185.643 51.6055 185.576 51.8867C185.514 52.1641 185.482 52.4609 185.482 52.7773ZM194.066 56.1172C193.625 56.1172 193.225 56.043 192.865 55.8945C192.51 55.7422 192.203 55.5293 191.945 55.2559C191.691 54.9824 191.496 54.6582 191.359 54.2832C191.223 53.9082 191.154 53.498 191.154 53.0527V52.8066C191.154 52.291 191.23 51.832 191.383 51.4297C191.535 51.0234 191.742 50.6797 192.004 50.3984C192.266 50.1172 192.562 49.9043 192.895 49.7598C193.227 49.6152 193.57 49.543 193.926 49.543C194.379 49.543 194.77 49.6211 195.098 49.7773C195.43 49.9336 195.701 50.1523 195.912 50.4336C196.123 50.7109 196.279 51.0391 196.381 51.418C196.482 51.793 196.533 52.2031 196.533 52.6484V53.1348H191.799V52.25H195.449V52.168C195.434 51.8867 195.375 51.6133 195.273 51.3477C195.176 51.082 195.02 50.8633 194.805 50.6914C194.59 50.5195 194.297 50.4336 193.926 50.4336C193.68 50.4336 193.453 50.4863 193.246 50.5918C193.039 50.6934 192.861 50.8457 192.713 51.0488C192.564 51.252 192.449 51.5 192.367 51.793C192.285 52.0859 192.244 52.4238 192.244 52.8066V53.0527C192.244 53.3535 192.285 53.6367 192.367 53.9023C192.453 54.1641 192.576 54.3945 192.736 54.5938C192.9 54.793 193.098 54.9492 193.328 55.0625C193.562 55.1758 193.828 55.2324 194.125 55.2324C194.508 55.2324 194.832 55.1543 195.098 54.998C195.363 54.8418 195.596 54.6328 195.795 54.3711L196.451 54.8926C196.314 55.0996 196.141 55.2969 195.93 55.4844C195.719 55.6719 195.459 55.8242 195.15 55.9414C194.846 56.0586 194.484 56.1172 194.066 56.1172ZM197.512 52.9004V52.7656C197.512 52.3086 197.578 51.8848 197.711 51.4941C197.844 51.0996 198.035 50.7578 198.285 50.4688C198.535 50.1758 198.838 49.9492 199.193 49.7891C199.549 49.625 199.947 49.543 200.389 49.543C200.834 49.543 201.234 49.625 201.59 49.7891C201.949 49.9492 202.254 50.1758 202.504 50.4688C202.758 50.7578 202.951 51.0996 203.084 51.4941C203.217 51.8848 203.283 52.3086 203.283 52.7656V52.9004C203.283 53.3574 203.217 53.7812 203.084 54.1719C202.951 54.5625 202.758 54.9043 202.504 55.1973C202.254 55.4863 201.951 55.7129 201.596 55.877C201.244 56.0371 200.846 56.1172 200.4 56.1172C199.955 56.1172 199.555 56.0371 199.199 55.877C198.844 55.7129 198.539 55.4863 198.285 55.1973C198.035 54.9043 197.844 54.5625 197.711 54.1719C197.578 53.7812 197.512 53.3574 197.512 52.9004ZM198.596 52.7656V52.9004C198.596 53.2168 198.633 53.5156 198.707 53.7969C198.781 54.0742 198.893 54.3203 199.041 54.5352C199.193 54.75 199.383 54.9199 199.609 55.0449C199.836 55.166 200.1 55.2266 200.4 55.2266C200.697 55.2266 200.957 55.166 201.18 55.0449C201.406 54.9199 201.594 54.75 201.742 54.5352C201.891 54.3203 202.002 54.0742 202.076 53.7969C202.154 53.5156 202.193 53.2168 202.193 52.9004V52.7656C202.193 52.4531 202.154 52.1582 202.076 51.8809C202.002 51.5996 201.889 51.3516 201.736 51.1367C201.588 50.918 201.4 50.7461 201.174 50.6211C200.951 50.4961 200.689 50.4336 200.389 50.4336C200.092 50.4336 199.83 50.4961 199.604 50.6211C199.381 50.7461 199.193 50.918 199.041 51.1367C198.893 51.3516 198.781 51.5996 198.707 51.8809C198.633 52.1582 198.596 52.4531 198.596 52.7656ZM211.615 54.7695V47H212.705V56H211.709L211.615 54.7695ZM207.35 52.9004V52.7773C207.35 52.293 207.408 51.8535 207.525 51.459C207.646 51.0605 207.816 50.7188 208.035 50.4336C208.258 50.1484 208.521 49.9297 208.826 49.7773C209.135 49.6211 209.479 49.543 209.857 49.543C210.256 49.543 210.604 49.6133 210.9 49.7539C211.201 49.8906 211.455 50.0918 211.662 50.3574C211.873 50.6191 212.039 50.9355 212.16 51.3066C212.281 51.6777 212.365 52.0977 212.412 52.5664V53.1055C212.369 53.5703 212.285 53.9883 212.16 54.3594C212.039 54.7305 211.873 55.0469 211.662 55.3086C211.455 55.5703 211.201 55.7715 210.9 55.9121C210.6 56.0488 210.248 56.1172 209.846 56.1172C209.475 56.1172 209.135 56.0371 208.826 55.877C208.521 55.7168 208.258 55.4922 208.035 55.2031C207.816 54.9141 207.646 54.5742 207.525 54.1836C207.408 53.7891 207.35 53.3613 207.35 52.9004ZM208.439 52.7773V52.9004C208.439 53.2168 208.471 53.5137 208.533 53.791C208.6 54.0684 208.701 54.3125 208.838 54.5234C208.975 54.7344 209.148 54.9004 209.359 55.0215C209.57 55.1387 209.822 55.1973 210.115 55.1973C210.475 55.1973 210.77 55.1211 211 54.9688C211.234 54.8164 211.422 54.6152 211.562 54.3652C211.703 54.1152 211.812 53.8438 211.891 53.5508V52.1387C211.844 51.9238 211.775 51.7168 211.686 51.5176C211.6 51.3145 211.486 51.1348 211.346 50.9785C211.209 50.8184 211.039 50.6914 210.836 50.5977C210.637 50.5039 210.4 50.457 210.127 50.457C209.83 50.457 209.574 50.5195 209.359 50.6445C209.148 50.7656 208.975 50.9336 208.838 51.1484C208.701 51.3594 208.6 51.6055 208.533 51.8867C208.471 52.1641 208.439 52.4609 208.439 52.7773ZM218.131 54.916V51.6523C218.131 51.4023 218.08 51.1855 217.979 51.002C217.881 50.8145 217.732 50.6699 217.533 50.5684C217.334 50.4668 217.088 50.416 216.795 50.416C216.521 50.416 216.281 50.4629 216.074 50.5566C215.871 50.6504 215.711 50.7734 215.594 50.9258C215.48 51.0781 215.424 51.2422 215.424 51.418H214.34C214.34 51.1914 214.398 50.9668 214.516 50.7441C214.633 50.5215 214.801 50.3203 215.02 50.1406C215.242 49.957 215.508 49.8125 215.816 49.707C216.129 49.5977 216.477 49.543 216.859 49.543C217.32 49.543 217.727 49.6211 218.078 49.7773C218.434 49.9336 218.711 50.1699 218.91 50.4863C219.113 50.7988 219.215 51.1914 219.215 51.6641V54.6172C219.215 54.8281 219.232 55.0527 219.268 55.291C219.307 55.5293 219.363 55.7344 219.438 55.9062V56H218.307C218.252 55.875 218.209 55.709 218.178 55.502C218.146 55.291 218.131 55.0957 218.131 54.916ZM218.318 52.1562L218.33 52.918H217.234C216.926 52.918 216.65 52.9434 216.408 52.9941C216.166 53.041 215.963 53.1133 215.799 53.2109C215.635 53.3086 215.51 53.4316 215.424 53.5801C215.338 53.7246 215.295 53.8945 215.295 54.0898C215.295 54.2891 215.34 54.4707 215.43 54.6348C215.52 54.7988 215.654 54.9297 215.834 55.0273C216.018 55.1211 216.242 55.168 216.508 55.168C216.84 55.168 217.133 55.0977 217.387 54.957C217.641 54.8164 217.842 54.6445 217.99 54.4414C218.143 54.2383 218.225 54.041 218.236 53.8496L218.699 54.3711C218.672 54.5352 218.598 54.7168 218.477 54.916C218.355 55.1152 218.193 55.3066 217.99 55.4902C217.791 55.6699 217.553 55.8203 217.275 55.9414C217.002 56.0586 216.693 56.1172 216.35 56.1172C215.92 56.1172 215.543 56.0332 215.219 55.8652C214.898 55.6973 214.648 55.4727 214.469 55.1914C214.293 54.9062 214.205 54.5879 214.205 54.2363C214.205 53.8965 214.271 53.5977 214.404 53.3398C214.537 53.0781 214.729 52.8613 214.979 52.6895C215.229 52.5137 215.529 52.3809 215.881 52.291C216.232 52.2012 216.625 52.1562 217.059 52.1562H218.318ZM223.574 49.6602V50.4922H220.146V49.6602H223.574ZM221.307 48.1191H222.391V54.4297C222.391 54.6445 222.424 54.8066 222.49 54.916C222.557 55.0254 222.643 55.0977 222.748 55.1328C222.854 55.168 222.967 55.1855 223.088 55.1855C223.178 55.1855 223.271 55.1777 223.369 55.1621C223.471 55.1426 223.547 55.127 223.598 55.1152L223.604 56C223.518 56.0273 223.404 56.0527 223.264 56.0762C223.127 56.1035 222.961 56.1172 222.766 56.1172C222.5 56.1172 222.256 56.0645 222.033 55.959C221.811 55.8535 221.633 55.6777 221.5 55.4316C221.371 55.1816 221.307 54.8457 221.307 54.4238V48.1191ZM228.584 54.916V51.6523C228.584 51.4023 228.533 51.1855 228.432 51.002C228.334 50.8145 228.186 50.6699 227.986 50.5684C227.787 50.4668 227.541 50.416 227.248 50.416C226.975 50.416 226.734 50.4629 226.527 50.5566C226.324 50.6504 226.164 50.7734 226.047 50.9258C225.934 51.0781 225.877 51.2422 225.877 51.418H224.793C224.793 51.1914 224.852 50.9668 224.969 50.7441C225.086 50.5215 225.254 50.3203 225.473 50.1406C225.695 49.957 225.961 49.8125 226.27 49.707C226.582 49.5977 226.93 49.543 227.312 49.543C227.773 49.543 228.18 49.6211 228.531 49.7773C228.887 49.9336 229.164 50.1699 229.363 50.4863C229.566 50.7988 229.668 51.1914 229.668 51.6641V54.6172C229.668 54.8281 229.686 55.0527 229.721 55.291C229.76 55.5293 229.816 55.7344 229.891 55.9062V56H228.76C228.705 55.875 228.662 55.709 228.631 55.502C228.6 55.291 228.584 55.0957 228.584 54.916ZM228.771 52.1562L228.783 52.918H227.688C227.379 52.918 227.104 52.9434 226.861 52.9941C226.619 53.041 226.416 53.1133 226.252 53.2109C226.088 53.3086 225.963 53.4316 225.877 53.5801C225.791 53.7246 225.748 53.8945 225.748 54.0898C225.748 54.2891 225.793 54.4707 225.883 54.6348C225.973 54.7988 226.107 54.9297 226.287 55.0273C226.471 55.1211 226.695 55.168 226.961 55.168C227.293 55.168 227.586 55.0977 227.84 54.957C228.094 54.8164 228.295 54.6445 228.443 54.4414C228.596 54.2383 228.678 54.041 228.689 53.8496L229.152 54.3711C229.125 54.5352 229.051 54.7168 228.93 54.916C228.809 55.1152 228.646 55.3066 228.443 55.4902C228.244 55.6699 228.006 55.8203 227.729 55.9414C227.455 56.0586 227.146 56.1172 226.803 56.1172C226.373 56.1172 225.996 56.0332 225.672 55.8652C225.352 55.6973 225.102 55.4727 224.922 55.1914C224.746 54.9062 224.658 54.5879 224.658 54.2363C224.658 53.8965 224.725 53.5977 224.857 53.3398C224.99 53.0781 225.182 52.8613 225.432 52.6895C225.682 52.5137 225.982 52.3809 226.334 52.291C226.686 52.2012 227.078 52.1562 227.512 52.1562H228.771ZM235.504 52.2969L231.338 50.6738V49.5547L236.342 51.7695V52.4551L235.504 52.2969ZM231.338 53.7266L235.516 52.0684L236.342 51.9453V52.625L231.338 54.8457V53.7266Z" fill="white"/>
</svg>
