<svg width="504" height="504" viewBox="0 0 504 504" fill="none" xmlns="http://www.w3.org/2000/svg">
<path d="M127.398 196.134C127.758 197.467 126.969 198.842 125.627 199.169C105.245 204.125 83.7968 202.55 64.3273 194.632C44.085 186.4 27.0965 171.764 15.9602 152.962C4.82377 134.161 0.152592 112.229 2.66106 90.5208C5.16952 68.813 14.7195 48.5244 29.8504 32.7581C44.9814 16.9918 64.8602 6.61576 86.4465 3.21697C108.033 -0.181822 130.138 3.58375 149.382 13.9378C168.625 24.2918 183.948 40.6642 193.005 60.5509C201.717 79.6784 204.172 101.044 200.058 121.612C199.787 122.966 198.445 123.811 197.099 123.506V123.506C195.752 123.202 194.91 121.863 195.179 120.509C199.054 101.007 196.714 80.7564 188.455 62.6233C179.85 43.731 165.294 28.1772 147.013 18.3409C128.731 8.50456 107.731 4.92727 87.2242 8.15612C66.7172 11.385 47.8323 21.2422 33.4579 36.2202C19.0836 51.1982 10.011 70.4724 7.628 91.0948C5.24496 111.717 9.68259 132.553 20.2622 150.414C30.8417 168.276 46.9808 182.18 66.211 190.001C84.6682 197.507 104.998 199.012 124.324 194.34C125.666 194.015 127.038 194.801 127.398 196.134V196.134Z" fill="#747474" stroke="#747474" stroke-width="4"/>
<path d="M376.466 196.097C376.105 197.43 376.891 198.806 378.232 199.135C398.607 204.12 420.058 202.577 439.539 194.687C459.793 186.484 476.803 171.872 487.966 153.087C499.13 134.301 503.833 112.376 501.355 90.6646C498.878 68.9532 489.358 48.6509 474.25 32.8627C459.142 17.0745 439.278 6.66971 417.697 3.23965C396.115 -0.190418 374.004 3.5431 354.746 13.8692C335.487 24.1952 320.141 40.5454 311.055 60.4189C302.315 79.5337 299.829 100.896 303.914 121.47C304.183 122.824 305.523 123.671 306.87 123.368V123.368C308.217 123.066 309.061 121.729 308.794 120.374C304.948 100.866 307.317 80.619 315.602 62.498C324.234 43.6181 338.813 28.0855 357.109 18.2757C375.404 8.46595 396.41 4.91911 416.912 8.17767C437.414 11.4362 456.285 21.3208 470.637 36.3196C484.99 51.3183 494.035 70.6056 496.388 91.2314C498.741 111.857 494.273 132.686 483.668 150.532C473.062 168.378 456.903 182.26 437.662 190.052C419.194 197.532 398.862 199.008 379.542 194.307C378.201 193.981 376.828 194.765 376.466 196.097V196.097Z" fill="#747474" stroke="#747474" stroke-width="4"/>
<path d="M132.258 309.314C132.686 308.001 131.97 306.587 130.647 306.191C110.551 300.182 89.0495 300.639 69.1947 307.534C48.5518 314.703 30.8253 328.436 18.7263 346.633C6.62743 364.83 0.82219 386.49 2.19853 408.298C3.57487 430.107 12.057 450.865 26.3476 467.397C40.6383 483.928 59.9506 495.324 81.331 499.841C102.711 504.357 124.983 501.746 144.739 492.407C164.495 483.068 180.647 467.514 190.727 448.125C200.421 429.477 203.984 408.268 200.945 387.513C200.745 386.147 199.449 385.234 198.088 385.468V385.468C196.727 385.702 195.818 386.995 196.016 388.361C198.871 408.038 195.481 428.14 186.291 445.819C176.715 464.238 161.37 479.014 142.602 487.887C123.834 496.759 102.676 499.239 82.3645 494.949C62.0531 490.658 43.7064 479.832 30.1303 464.127C16.5542 448.422 8.49612 428.702 7.1886 407.983C5.88108 387.265 11.3961 366.689 22.89 349.401C34.384 332.114 51.2242 319.068 70.835 312.257C89.6576 305.721 110.038 305.275 129.095 310.946C130.419 311.34 131.829 310.626 132.258 309.314V309.314Z" fill="#747474" stroke="#747474" stroke-width="4"/>
<path d="M376.361 307.931C375.998 306.599 376.783 305.222 378.124 304.892C398.493 299.884 419.946 301.403 439.435 309.271C459.699 317.452 476.724 332.045 487.909 350.818C499.093 369.591 503.821 391.51 501.368 413.225C498.915 434.939 489.417 455.252 474.327 471.057C459.236 486.862 439.384 497.289 417.807 500.743C396.229 504.197 374.114 500.488 354.844 490.184C335.574 479.879 320.21 463.546 311.101 443.683C302.341 424.578 299.831 403.218 303.892 382.64C304.159 381.285 305.499 380.437 306.847 380.738V380.738C308.194 381.039 309.039 382.375 308.773 383.73C304.949 403.242 307.341 423.487 315.646 441.599C324.299 460.469 338.896 475.985 357.202 485.774C375.509 495.564 396.518 499.087 417.017 495.806C437.515 492.524 456.375 482.619 470.711 467.604C485.046 452.589 494.069 433.292 496.4 412.663C498.73 392.035 494.239 371.211 483.614 353.377C472.988 335.542 456.814 321.679 437.564 313.908C419.087 306.449 398.754 304.996 379.439 309.718C378.098 310.046 376.724 309.263 376.361 307.931V307.931Z" fill="#747474" stroke="#747474" stroke-width="4"/>
<path d="M102 103C249 209.2 249 209.2 402 103C259 261 259 261 402 403C249 312.8 249 312.8 102 403C239 261 239 261 102 103Z" fill="#383838"/>
<path d="M202.158 242.817C201.214 238.898 204.075 235 208.107 235H212.437H224.874H231.093H237.312H242.227C242.882 235 243.533 235.107 244.153 235.318L247.394 236.417C248.598 236.825 249.9 236.84 251.113 236.46L254.904 235.274C255.484 235.092 256.088 235 256.696 235H262.186H274.623H290.828C294.879 235 297.745 238.935 296.793 242.873C293.971 254.549 294.181 263.121 296.661 273.041C297.652 277.005 294.792 281 290.705 281H274.623H264.487C263.006 281 261.576 280.452 260.475 279.461L254.105 273.732C251.892 271.742 248.553 271.675 246.262 273.576L238.978 279.618C237.901 280.511 236.546 281 235.147 281H224.874H208.22C204.155 281 201.293 277.045 202.265 273.098C204.868 262.522 204.891 254.157 202.158 242.817Z" fill="#9A9A9A"/>
</svg>
