<?xml version="1.0" standalone="no"?>
<!DOCTYPE svg PUBLIC "-//W3C//DTD SVG 20010904//EN"
 "http://www.w3.org/TR/2001/REC-SVG-20010904/DTD/svg10.dtd">
<svg version="1.0" xmlns="http://www.w3.org/2000/svg"
 width="700.000000pt" height="700.000000pt" viewBox="0 0 700.000000 700.000000"
 preserveAspectRatio="xMidYMid meet">
<metadata>
Created by potrace 1.14, written by Peter Selinger 2001-2017
</metadata>
<g transform="translate(0.000000,700.000000) scale(0.100000,-0.100000)"
fill="#000000" stroke="none">
<path d="M1276 6989 c-528 -54 -979 -397 -1177 -895 -118 -299 -125 -650 -18
-968 135 -404 477 -745 883 -881 234 -79 510 -95 747 -44 61 13 81 32 77 72
-5 50 -22 53 -167 32 -532 -75 -1023 150 -1305 599 -269 428 -257 974 31 1409
61 93 247 279 340 340 608 402 1399 249 1803 -348 174 -258 247 -568 210 -891
-12 -107 -12 -115 5 -134 10 -11 28 -20 40 -20 59 0 79 86 79 330 0 189 -16
287 -69 446 -113 336 -368 633 -684 798 -244 126 -531 182 -795 155z"/>
<path d="M5445 6989 c-336 -33 -646 -185 -882 -432 -238 -250 -371 -557 -389
-902 -7 -118 7 -301 27 -351 14 -38 52 -51 85 -29 25 16 26 20 20 73 -4 32 -9
118 -12 193 -27 598 377 1142 960 1293 369 96 739 32 1062 -184 101 -68 266
-233 334 -334 215 -322 280 -694 185 -1060 -122 -469 -494 -826 -975 -937
-132 -31 -356 -36 -495 -11 -70 12 -116 16 -127 10 -50 -25 -41 -89 14 -107
82 -26 173 -35 338 -35 141 0 194 5 272 22 277 61 498 177 695 365 368 353
518 865 397 1357 -65 260 -183 470 -374 660 -240 241 -533 378 -875 410 -121
11 -143 11 -260 -1z"/>
<path d="M1451 5535 c9 -11 140 -164 290 -340 538 -627 778 -942 926 -1210 51
-93 117 -239 128 -287 l7 -28 28 31 29 30 283 -5 c344 -6 302 -6 646 0 l282 5
25 -25 c14 -14 25 -35 26 -48 0 -13 11 6 24 43 120 344 401 721 1193 1599 102
113 195 216 206 229 12 14 -42 -19 -119 -72 -351 -242 -804 -542 -951 -629
-308 -184 -538 -287 -749 -336 -139 -32 -353 -36 -480 -8 -338 74 -703 278
-1450 813 -365 261 -361 259 -344 238z"/>
<path d="M3383 3172 c-32 -27 -68 -54 -80 -60 -29 -16 -412 -16 -447 -1 -13 6
-28 20 -33 32 -8 17 -13 11 -32 -44 -116 -317 -367 -644 -1035 -1344 -257
-269 -323 -339 -311 -333 6 3 53 32 105 63 52 32 192 117 310 188 852 517
1215 667 1610 667 408 0 765 -148 1775 -737 165 -97 305 -178 310 -181 6 -3
-148 154 -340 349 -720 728 -951 1016 -1064 1325 -28 77 -29 78 -41 53 -7 -15
-23 -32 -37 -38 -33 -15 -407 -15 -436 1 -12 6 -46 33 -75 60 -72 65 -100 65
-179 0z"/>
<path d="M1235 2819 c-324 -45 -613 -193 -842 -433 -412 -431 -506 -1076 -234
-1615 123 -244 368 -489 612 -612 414 -208 890 -206 1300 7 375 195 646 557
730 973 39 191 34 488 -7 518 -24 18 -54 16 -75 -3 -16 -14 -17 -31 -12 -172
6 -189 -10 -314 -61 -467 -229 -684 -948 -1049 -1631 -828 -193 62 -356 164
-510 318 -155 154 -249 304 -316 502 -202 598 68 1267 628 1556 284 146 590
184 909 110 84 -19 121 -13 130 21 9 36 -3 62 -34 75 -107 45 -429 72 -587 50z"/>
<path d="M5411 2820 c-164 -23 -216 -46 -209 -92 2 -12 14 -29 28 -39 23 -17
29 -17 90 -3 109 25 339 30 461 10 308 -51 591 -209 783 -436 385 -456 418
-1079 85 -1577 -67 -101 -232 -265 -334 -333 -496 -332 -1120 -298 -1575 86
-227 192 -388 480 -436 784 -16 103 -15 277 2 432 6 53 5 57 -20 73 -33 22
-71 9 -85 -29 -20 -50 -34 -233 -27 -351 18 -345 151 -652 389 -902 357 -373
875 -521 1372 -393 798 206 1247 1039 984 1824 -135 404 -477 745 -883 881
-137 46 -251 65 -411 70 -82 2 -179 0 -214 -5z"/>
</g>
</svg>
