<svg width="403" height="133" viewBox="0 0 403 133" fill="none" xmlns="http://www.w3.org/2000/svg">
<path d="M33.6056 52.9301C33.6962 53.266 33.4974 53.6127 33.1593 53.6949C28.0222 54.9441 22.6162 54.5473 17.7091 52.5516C12.6072 50.4767 8.32536 46.7877 5.51851 42.0489C2.71167 37.3101 1.53433 31.7823 2.16657 26.311C2.79881 20.8397 5.20582 15.7261 9.01946 11.7524C12.8331 7.77857 17.8434 5.16337 23.2841 4.30673C28.7248 3.45008 34.2963 4.39917 39.1465 7.00882C43.9967 9.61847 47.8586 13.745 50.1415 18.7573C52.3372 23.5783 52.956 28.9633 51.919 34.1474C51.8508 34.4887 51.5125 34.7016 51.1731 34.6248V34.6248C50.8337 34.548 50.6216 34.2107 50.6894 33.8694C51.6659 28.954 51.0762 23.85 48.9946 19.2797C46.8259 14.518 43.1571 10.5978 38.5494 8.11859C33.9417 5.63942 28.6487 4.73779 23.4801 5.5516C18.3115 6.36541 13.5517 8.84986 9.9287 12.625C6.30574 16.4 4.01908 21.258 3.41846 26.4557C2.81783 31.6534 3.9363 36.9048 6.6028 41.4067C9.2693 45.9086 13.337 49.4131 18.1839 51.3842C22.8359 53.2762 27.9598 53.6555 32.8309 52.4778C33.1692 52.3961 33.5149 52.5941 33.6056 52.9301V52.9301Z" fill="#747474" stroke="#747474" stroke-width="4"/>
<path d="M96.3815 52.9208C96.2903 53.2567 96.4886 53.6036 96.8267 53.6863C101.962 54.9429 107.368 54.5539 112.278 52.5653C117.383 50.4978 121.671 46.815 124.484 42.0803C127.298 37.3455 128.483 31.8195 127.859 26.3473C127.235 20.8751 124.835 15.758 121.027 11.7787C117.219 7.79943 112.213 5.17698 106.773 4.31246C101.334 3.44793 95.761 4.38894 90.907 6.99155C86.0531 9.59416 82.1852 13.7151 79.895 18.7241C77.6923 23.5418 77.0657 28.926 78.0951 34.1116C78.1629 34.4529 78.5008 34.6663 78.8404 34.59V34.59C79.1799 34.5137 79.3924 34.1767 79.3251 33.8353C78.3558 28.9185 78.9529 23.8154 81.0411 19.2481C83.2168 14.4896 86.8913 10.5747 91.5025 8.10219C96.1138 5.62971 101.408 4.73575 106.576 5.55705C111.743 6.37834 116.499 8.86968 120.117 12.65C123.734 16.4303 126.014 21.2916 126.607 26.4901C127.2 31.6887 126.074 36.9385 123.401 41.4365C120.728 45.9345 116.655 49.4331 111.805 51.3973C107.151 53.2825 102.026 53.6544 97.1568 52.4697C96.8187 52.3874 96.4726 52.5849 96.3815 52.9208V52.9208Z" fill="#747474" stroke="#747474" stroke-width="4"/>
<path d="M34.8306 81.4563C34.9386 81.1255 34.7581 80.769 34.4247 80.6693C29.3595 79.1547 23.9402 79.2699 18.9359 81.0077C13.733 82.8146 9.2652 86.2759 6.21576 90.8623C3.16631 95.4488 1.70314 100.908 2.05004 106.405C2.39694 111.901 4.5348 117.133 8.13665 121.3C11.7385 125.467 16.606 128.339 21.9948 129.477C27.3836 130.616 32.9969 129.958 37.9762 127.604C42.9556 125.25 47.0268 121.33 49.5672 116.443C52.0107 111.742 52.9086 106.397 52.1427 101.166C52.0923 100.822 51.7656 100.591 51.4226 100.65V100.65C51.0796 100.709 50.8503 101.035 50.9003 101.38C51.6198 106.339 50.7655 111.406 48.4491 115.861C46.0357 120.504 42.168 124.228 37.4376 126.464C32.7073 128.7 27.3746 129.326 22.2553 128.244C17.136 127.163 12.5118 124.434 9.09003 120.476C5.66827 116.517 3.6373 111.547 3.30775 106.325C2.9782 101.103 4.36821 95.9172 7.26518 91.5601C10.1622 87.203 14.4066 83.9147 19.3494 82.1982C24.0935 80.5507 29.2302 80.4383 34.0334 81.8677C34.367 81.9669 34.7226 81.7872 34.8306 81.4563V81.4563Z" fill="#747474" stroke="#747474" stroke-width="4"/>
<path d="M96.355 81.1079C96.2635 80.7721 96.4614 80.425 96.7993 80.3419C101.933 79.0795 107.34 79.4625 112.252 81.4456C117.36 83.5075 121.651 87.1854 124.47 91.917C127.289 96.6486 128.48 102.173 127.862 107.646C127.244 113.119 124.85 118.239 121.047 122.222C117.243 126.206 112.24 128.834 106.801 129.705C101.363 130.575 95.7887 129.64 90.9318 127.043C86.0749 124.446 82.2025 120.329 79.9067 115.323C77.6986 110.508 77.0661 105.124 78.0897 99.9376C78.157 99.5961 78.4947 99.3824 78.8343 99.4583V99.4583C79.174 99.5342 79.3869 99.871 79.32 100.212C78.3561 105.13 78.9589 110.233 81.0523 114.798C83.2332 119.554 86.9121 123.465 91.5261 125.932C96.1401 128.399 101.435 129.287 106.602 128.46C111.768 127.633 116.522 125.137 120.135 121.352C123.748 117.568 126.023 112.704 126.61 107.505C127.197 102.306 126.065 97.0571 123.387 92.5621C120.709 88.067 116.632 84.5729 111.781 82.6142C107.124 80.7342 101.999 80.368 97.1308 81.5581C96.7928 81.6408 96.4465 81.4436 96.355 81.1079V81.1079Z" fill="#747474" stroke="#747474" stroke-width="4"/>
<path d="M27.2043 29.4564C64.2545 56.2234 64.2545 56.2234 102.817 29.4564C66.775 69.2792 66.775 69.2792 102.817 105.069C64.2545 82.335 64.2545 82.335 27.2043 105.069C61.7341 69.2792 61.7341 69.2792 27.2043 29.4564Z" fill="#383838"/>
<path d="M52.6794 65.7629C52.3881 64.2313 53.4801 62.726 55.0391 62.726V62.726H58.1738H59.7412H61.3085H62.2576C62.6146 62.726 62.9692 62.7844 63.3073 62.8991V62.8991C63.9632 63.1214 64.6727 63.1298 65.3336 62.923L65.4375 62.8904C65.7859 62.7814 66.1488 62.726 66.5138 62.726H67.5779H70.7126H70.9805C73.8935 62.726 75.751 65.8875 75.7835 68.8002V68.8002C75.8162 71.7387 73.8307 74.3199 70.892 74.3199H70.7126H68.8219C68.021 74.3199 67.2485 74.0236 66.653 73.4881V73.4881C65.4566 72.4121 63.652 72.376 62.4135 73.4033L62.2693 73.5229C61.6484 74.038 60.867 74.3199 60.0602 74.3199H58.1738H57.8621C54.9157 74.3199 52.9942 71.4309 52.9656 68.4847C52.9571 67.612 52.8624 66.7247 52.6794 65.7629Z" fill="#9A9A9A"/>
<path d="M277 9C277 4.02944 281.029 0 286 0H394C398.971 0 403 4.02944 403 9V117C403 121.971 398.971 126 394 126H286C281.029 126 277 121.971 277 117V9Z" fill="#383838"/>
<path d="M277.061 46.0821C277.646 45.4964 277.646 44.5466 277.061 43.9608L267.515 34.4149C266.929 33.8291 265.979 33.8291 265.393 34.4149C264.808 35.0007 264.808 35.9504 265.393 36.5362L273.879 45.0215L265.393 53.5068C264.808 54.0926 264.808 55.0423 265.393 55.6281C265.979 56.2139 266.929 56.2139 267.515 55.6281L277.061 46.0821ZM128 46.5215H276V43.5215H128V46.5215Z" fill="black"/>
<path d="M126.939 84.9608C126.354 85.5466 126.354 86.4963 126.939 87.0821L136.485 96.6281C137.071 97.2139 138.021 97.2139 138.607 96.6281C139.192 96.0423 139.192 95.0925 138.607 94.5068L130.121 86.0215L138.607 77.5362C139.192 76.9504 139.192 76.0007 138.607 75.4149C138.021 74.8291 137.071 74.8291 136.485 75.4149L126.939 84.9608ZM277 84.5215L128 84.5215L128 87.5215L277 87.5215L277 84.5215Z" fill="black"/>
<rect x="168" y="95" width="60" height="20" rx="3" fill="#383838"/>
<path d="M172.348 100.469H173.443L176.238 107.424L179.027 100.469H180.129L176.66 109H175.805L172.348 100.469ZM171.99 100.469H172.957L173.115 105.672V109H171.99V100.469ZM179.514 100.469H180.48V109H179.355V105.672L179.514 100.469ZM182.016 105.9V105.766C182.016 105.309 182.082 104.885 182.215 104.494C182.348 104.1 182.539 103.758 182.789 103.469C183.039 103.176 183.342 102.949 183.697 102.789C184.053 102.625 184.451 102.543 184.893 102.543C185.338 102.543 185.738 102.625 186.094 102.789C186.453 102.949 186.758 103.176 187.008 103.469C187.262 103.758 187.455 104.1 187.588 104.494C187.721 104.885 187.787 105.309 187.787 105.766V105.9C187.787 106.357 187.721 106.781 187.588 107.172C187.455 107.562 187.262 107.904 187.008 108.197C186.758 108.486 186.455 108.713 186.1 108.877C185.748 109.037 185.35 109.117 184.904 109.117C184.459 109.117 184.059 109.037 183.703 108.877C183.348 108.713 183.043 108.486 182.789 108.197C182.539 107.904 182.348 107.562 182.215 107.172C182.082 106.781 182.016 106.357 182.016 105.9ZM183.1 105.766V105.9C183.1 106.217 183.137 106.516 183.211 106.797C183.285 107.074 183.396 107.32 183.545 107.535C183.697 107.75 183.887 107.92 184.113 108.045C184.34 108.166 184.604 108.227 184.904 108.227C185.201 108.227 185.461 108.166 185.684 108.045C185.91 107.92 186.098 107.75 186.246 107.535C186.395 107.32 186.506 107.074 186.58 106.797C186.658 106.516 186.697 106.217 186.697 105.9V105.766C186.697 105.453 186.658 105.158 186.58 104.881C186.506 104.6 186.393 104.352 186.24 104.137C186.092 103.918 185.904 103.746 185.678 103.621C185.455 103.496 185.193 103.434 184.893 103.434C184.596 103.434 184.334 103.496 184.107 103.621C183.885 103.746 183.697 103.918 183.545 104.137C183.396 104.352 183.285 104.6 183.211 104.881C183.137 105.158 183.1 105.453 183.1 105.766ZM190.98 108.021L192.715 102.66H193.822L191.543 109H190.816L190.98 108.021ZM189.533 102.66L191.32 108.051L191.443 109H190.717L188.42 102.66H189.533ZM197.414 109.117C196.973 109.117 196.572 109.043 196.213 108.895C195.857 108.742 195.551 108.529 195.293 108.256C195.039 107.982 194.844 107.658 194.707 107.283C194.57 106.908 194.502 106.498 194.502 106.053V105.807C194.502 105.291 194.578 104.832 194.73 104.43C194.883 104.023 195.09 103.68 195.352 103.398C195.613 103.117 195.91 102.904 196.242 102.76C196.574 102.615 196.918 102.543 197.273 102.543C197.727 102.543 198.117 102.621 198.445 102.777C198.777 102.934 199.049 103.152 199.26 103.434C199.471 103.711 199.627 104.039 199.729 104.418C199.83 104.793 199.881 105.203 199.881 105.648V106.135H195.146V105.25H198.797V105.168C198.781 104.887 198.723 104.613 198.621 104.348C198.523 104.082 198.367 103.863 198.152 103.691C197.938 103.52 197.645 103.434 197.273 103.434C197.027 103.434 196.801 103.486 196.594 103.592C196.387 103.693 196.209 103.846 196.061 104.049C195.912 104.252 195.797 104.5 195.715 104.793C195.633 105.086 195.592 105.424 195.592 105.807V106.053C195.592 106.354 195.633 106.637 195.715 106.902C195.801 107.164 195.924 107.395 196.084 107.594C196.248 107.793 196.445 107.949 196.676 108.062C196.91 108.176 197.176 108.232 197.473 108.232C197.855 108.232 198.18 108.154 198.445 107.998C198.711 107.842 198.943 107.633 199.143 107.371L199.799 107.893C199.662 108.1 199.488 108.297 199.277 108.484C199.066 108.672 198.807 108.824 198.498 108.941C198.193 109.059 197.832 109.117 197.414 109.117ZM209.461 108.08V109H205.195V108.08H209.461ZM205.418 100.469V109H204.287V100.469H205.418ZM213.223 109.117C212.781 109.117 212.381 109.043 212.021 108.895C211.666 108.742 211.359 108.529 211.102 108.256C210.848 107.982 210.652 107.658 210.516 107.283C210.379 106.908 210.311 106.498 210.311 106.053V105.807C210.311 105.291 210.387 104.832 210.539 104.43C210.691 104.023 210.898 103.68 211.16 103.398C211.422 103.117 211.719 102.904 212.051 102.76C212.383 102.615 212.727 102.543 213.082 102.543C213.535 102.543 213.926 102.621 214.254 102.777C214.586 102.934 214.857 103.152 215.068 103.434C215.279 103.711 215.436 104.039 215.537 104.418C215.639 104.793 215.689 105.203 215.689 105.648V106.135H210.955V105.25H214.605V105.168C214.59 104.887 214.531 104.613 214.43 104.348C214.332 104.082 214.176 103.863 213.961 103.691C213.746 103.52 213.453 103.434 213.082 103.434C212.836 103.434 212.609 103.486 212.402 103.592C212.195 103.693 212.018 103.846 211.869 104.049C211.721 104.252 211.605 104.5 211.523 104.793C211.441 105.086 211.4 105.424 211.4 105.807V106.053C211.4 106.354 211.441 106.637 211.523 106.902C211.609 107.164 211.732 107.395 211.893 107.594C212.057 107.793 212.254 107.949 212.484 108.062C212.719 108.176 212.984 108.232 213.281 108.232C213.664 108.232 213.988 108.154 214.254 107.998C214.52 107.842 214.752 107.633 214.951 107.371L215.607 107.893C215.471 108.1 215.297 108.297 215.086 108.484C214.875 108.672 214.615 108.824 214.307 108.941C214.002 109.059 213.641 109.117 213.223 109.117ZM218.572 109H217.488V101.992C217.488 101.535 217.57 101.15 217.734 100.838C217.902 100.521 218.143 100.283 218.455 100.123C218.768 99.959 219.139 99.877 219.568 99.877C219.693 99.877 219.818 99.8848 219.943 99.9004C220.072 99.916 220.197 99.9395 220.318 99.9707L220.26 100.855C220.178 100.836 220.084 100.822 219.979 100.814C219.877 100.807 219.775 100.803 219.674 100.803C219.443 100.803 219.244 100.85 219.076 100.943C218.912 101.033 218.787 101.166 218.701 101.342C218.615 101.518 218.572 101.734 218.572 101.992V109ZM219.92 102.66V103.492H216.486V102.66H219.92ZM223.781 102.66V103.492H220.354V102.66H223.781ZM221.514 101.119H222.598V107.43C222.598 107.645 222.631 107.807 222.697 107.916C222.764 108.025 222.85 108.098 222.955 108.133C223.061 108.168 223.174 108.186 223.295 108.186C223.385 108.186 223.479 108.178 223.576 108.162C223.678 108.143 223.754 108.127 223.805 108.115L223.811 109C223.725 109.027 223.611 109.053 223.471 109.076C223.334 109.104 223.168 109.117 222.973 109.117C222.707 109.117 222.463 109.064 222.24 108.959C222.018 108.854 221.84 108.678 221.707 108.432C221.578 108.182 221.514 107.846 221.514 107.424V101.119Z" fill="white"/>
<path d="M331.295 62.752V65.875C331.189 66.0312 331.021 66.207 330.791 66.4023C330.561 66.5938 330.242 66.7617 329.836 66.9062C329.434 67.0469 328.914 67.1172 328.277 67.1172C327.758 67.1172 327.279 67.0273 326.842 66.8477C326.408 66.6641 326.031 66.3984 325.711 66.0508C325.395 65.6992 325.148 65.2734 324.973 64.7734C324.801 64.2695 324.715 63.6992 324.715 63.0625V62.4004C324.715 61.7637 324.789 61.1953 324.938 60.6953C325.09 60.1953 325.312 59.7715 325.605 59.4238C325.898 59.0723 326.258 58.8066 326.684 58.627C327.109 58.4434 327.598 58.3516 328.148 58.3516C328.801 58.3516 329.346 58.4648 329.783 58.6914C330.225 58.9141 330.568 59.2227 330.814 59.6172C331.064 60.0117 331.225 60.4609 331.295 60.9648H330.164C330.113 60.6562 330.012 60.375 329.859 60.1211C329.711 59.8672 329.498 59.6641 329.221 59.5117C328.943 59.3555 328.586 59.2773 328.148 59.2773C327.754 59.2773 327.412 59.3496 327.123 59.4941C326.834 59.6387 326.596 59.8457 326.408 60.1152C326.221 60.3848 326.08 60.7109 325.986 61.0938C325.896 61.4766 325.852 61.9082 325.852 62.3887V63.0625C325.852 63.5547 325.908 63.9941 326.021 64.3809C326.139 64.7676 326.305 65.0977 326.52 65.3711C326.734 65.6406 326.99 65.8457 327.287 65.9863C327.588 66.127 327.92 66.1973 328.283 66.1973C328.686 66.1973 329.012 66.1641 329.262 66.0977C329.512 66.0273 329.707 65.9453 329.848 65.8516C329.988 65.7539 330.096 65.6621 330.17 65.5762V63.666H328.195V62.752H331.295ZM336.744 65.916V62.6523C336.744 62.4023 336.693 62.1855 336.592 62.002C336.494 61.8145 336.346 61.6699 336.146 61.5684C335.947 61.4668 335.701 61.416 335.408 61.416C335.135 61.416 334.895 61.4629 334.688 61.5566C334.484 61.6504 334.324 61.7734 334.207 61.9258C334.094 62.0781 334.037 62.2422 334.037 62.418H332.953C332.953 62.1914 333.012 61.9668 333.129 61.7441C333.246 61.5215 333.414 61.3203 333.633 61.1406C333.855 60.957 334.121 60.8125 334.43 60.707C334.742 60.5977 335.09 60.543 335.473 60.543C335.934 60.543 336.34 60.6211 336.691 60.7773C337.047 60.9336 337.324 61.1699 337.523 61.4863C337.727 61.7988 337.828 62.1914 337.828 62.6641V65.6172C337.828 65.8281 337.846 66.0527 337.881 66.291C337.92 66.5293 337.977 66.7344 338.051 66.9062V67H336.92C336.865 66.875 336.822 66.709 336.791 66.502C336.76 66.291 336.744 66.0957 336.744 65.916ZM336.932 63.1562L336.943 63.918H335.848C335.539 63.918 335.264 63.9434 335.021 63.9941C334.779 64.041 334.576 64.1133 334.412 64.2109C334.248 64.3086 334.123 64.4316 334.037 64.5801C333.951 64.7246 333.908 64.8945 333.908 65.0898C333.908 65.2891 333.953 65.4707 334.043 65.6348C334.133 65.7988 334.268 65.9297 334.447 66.0273C334.631 66.1211 334.855 66.168 335.121 66.168C335.453 66.168 335.746 66.0977 336 65.957C336.254 65.8164 336.455 65.6445 336.604 65.4414C336.756 65.2383 336.838 65.041 336.85 64.8496L337.312 65.3711C337.285 65.5352 337.211 65.7168 337.09 65.916C336.969 66.1152 336.807 66.3066 336.604 66.4902C336.404 66.6699 336.166 66.8203 335.889 66.9414C335.615 67.0586 335.307 67.1172 334.963 67.1172C334.533 67.1172 334.156 67.0332 333.832 66.8652C333.512 66.6973 333.262 66.4727 333.082 66.1914C332.906 65.9062 332.818 65.5879 332.818 65.2363C332.818 64.8965 332.885 64.5977 333.018 64.3398C333.15 64.0781 333.342 63.8613 333.592 63.6895C333.842 63.5137 334.143 63.3809 334.494 63.291C334.846 63.2012 335.238 63.1562 335.672 63.1562H336.932ZM340.611 61.9199V67H339.521V60.6602H340.553L340.611 61.9199ZM340.389 63.5898L339.885 63.5723C339.889 63.1387 339.945 62.7383 340.055 62.3711C340.164 62 340.326 61.6777 340.541 61.4043C340.756 61.1309 341.023 60.9199 341.344 60.7715C341.664 60.6191 342.035 60.543 342.457 60.543C342.754 60.543 343.027 60.5859 343.277 60.6719C343.527 60.7539 343.744 60.8848 343.928 61.0645C344.111 61.2441 344.254 61.4746 344.355 61.7559C344.457 62.0371 344.508 62.377 344.508 62.7754V67H343.424V62.8281C343.424 62.4961 343.367 62.2305 343.254 62.0312C343.145 61.832 342.988 61.6875 342.785 61.5977C342.582 61.5039 342.344 61.457 342.07 61.457C341.75 61.457 341.482 61.5137 341.268 61.627C341.053 61.7402 340.881 61.8965 340.752 62.0957C340.623 62.2949 340.529 62.5234 340.471 62.7812C340.416 63.0352 340.389 63.3047 340.389 63.5898ZM344.496 62.9922L343.77 63.2148C343.773 62.8672 343.83 62.5332 343.939 62.2129C344.053 61.8926 344.215 61.6074 344.426 61.3574C344.641 61.1074 344.904 60.9102 345.217 60.7656C345.529 60.6172 345.887 60.543 346.289 60.543C346.629 60.543 346.93 60.5879 347.191 60.6777C347.457 60.7676 347.68 60.9062 347.859 61.0938C348.043 61.2773 348.182 61.5137 348.275 61.8027C348.369 62.0918 348.416 62.4355 348.416 62.834V67H347.326V62.8223C347.326 62.4668 347.27 62.1914 347.156 61.9961C347.047 61.7969 346.891 61.6582 346.688 61.5801C346.488 61.498 346.25 61.457 345.973 61.457C345.734 61.457 345.523 61.498 345.34 61.5801C345.156 61.6621 345.002 61.7754 344.877 61.9199C344.752 62.0605 344.656 62.2227 344.59 62.4062C344.527 62.5898 344.496 62.7852 344.496 62.9922ZM352.688 67.1172C352.246 67.1172 351.846 67.043 351.486 66.8945C351.131 66.7422 350.824 66.5293 350.566 66.2559C350.312 65.9824 350.117 65.6582 349.98 65.2832C349.844 64.9082 349.775 64.498 349.775 64.0527V63.8066C349.775 63.291 349.852 62.832 350.004 62.4297C350.156 62.0234 350.363 61.6797 350.625 61.3984C350.887 61.1172 351.184 60.9043 351.516 60.7598C351.848 60.6152 352.191 60.543 352.547 60.543C353 60.543 353.391 60.6211 353.719 60.7773C354.051 60.9336 354.322 61.1523 354.533 61.4336C354.744 61.7109 354.9 62.0391 355.002 62.418C355.104 62.793 355.154 63.2031 355.154 63.6484V64.1348H350.42V63.25H354.07V63.168C354.055 62.8867 353.996 62.6133 353.895 62.3477C353.797 62.082 353.641 61.8633 353.426 61.6914C353.211 61.5195 352.918 61.4336 352.547 61.4336C352.301 61.4336 352.074 61.4863 351.867 61.5918C351.66 61.6934 351.482 61.8457 351.334 62.0488C351.186 62.252 351.07 62.5 350.988 62.793C350.906 63.0859 350.865 63.4238 350.865 63.8066V64.0527C350.865 64.3535 350.906 64.6367 350.988 64.9023C351.074 65.1641 351.197 65.3945 351.357 65.5938C351.521 65.793 351.719 65.9492 351.949 66.0625C352.184 66.1758 352.449 66.2324 352.746 66.2324C353.129 66.2324 353.453 66.1543 353.719 65.998C353.984 65.8418 354.217 65.6328 354.416 65.3711L355.072 65.8926C354.936 66.0996 354.762 66.2969 354.551 66.4844C354.34 66.6719 354.08 66.8242 353.771 66.9414C353.467 67.0586 353.105 67.1172 352.688 67.1172Z" fill="white"/>
<rect x="177" y="12" width="40" height="20" rx="3" fill="#383838"/>
<path d="M181.166 22.0625L185.215 23.7031V24.8516L180.422 22.6309V21.957L181.166 22.0625ZM185.215 20.7148L181.172 22.3789L180.422 22.4609V21.7812L185.215 19.5664V20.7148ZM187.664 19.6602L189.053 21.9688L190.459 19.6602H191.73L189.656 22.7891L191.795 26H190.541L189.076 23.6211L187.611 26H186.352L188.484 22.7891L186.416 19.6602H187.664ZM193.869 24.7109V25.584C193.869 25.9395 193.779 26.3145 193.6 26.709C193.42 27.1074 193.168 27.4395 192.844 27.7051L192.229 27.2773C192.354 27.1055 192.459 26.9297 192.545 26.75C192.631 26.5742 192.695 26.3906 192.738 26.1992C192.785 26.0117 192.809 25.8125 192.809 25.6016V24.7109H193.869ZM197.033 25.3438L198.797 19.6602H199.957L197.414 26.9785C197.355 27.1348 197.277 27.3027 197.18 27.4824C197.086 27.666 196.965 27.8398 196.816 28.0039C196.668 28.168 196.488 28.3008 196.277 28.4023C196.07 28.5078 195.822 28.5605 195.533 28.5605C195.447 28.5605 195.338 28.5488 195.205 28.5254C195.072 28.502 194.979 28.4824 194.924 28.4668L194.918 27.5879C194.949 27.5918 194.998 27.5957 195.064 27.5996C195.135 27.6074 195.184 27.6113 195.211 27.6113C195.457 27.6113 195.666 27.5781 195.838 27.5117C196.01 27.4492 196.154 27.3418 196.271 27.1895C196.393 27.041 196.496 26.8359 196.582 26.5742L197.033 25.3438ZM195.738 19.6602L197.385 24.582L197.666 25.7246L196.887 26.123L194.555 19.6602H195.738ZM201.287 24.7109V25.584C201.287 25.9395 201.197 26.3145 201.018 26.709C200.838 27.1074 200.586 27.4395 200.262 27.7051L199.646 27.2773C199.771 27.1055 199.877 26.9297 199.963 26.75C200.049 26.5742 200.113 26.3906 200.156 26.1992C200.203 26.0117 200.227 25.8125 200.227 25.6016V24.7109H201.287ZM207.393 25.1094V26H202.781V25.1094H207.393ZM207.223 20.4277L203.027 26H202.365V25.2031L206.531 19.6602H207.223V20.4277ZM206.742 19.6602V20.5566H202.412V19.6602H206.742ZM212.754 22.2969L208.588 20.6738V19.5547L213.592 21.7695V22.4551L212.754 22.2969ZM208.588 23.7266L212.766 22.0684L213.592 21.9453V22.625L208.588 24.8457V23.7266Z" fill="white"/>
</svg>
